<svg xmlns="http://www.w3.org/2000/svg" version="1.1" xmlns:xlink="http://www.w3.org/1999/xlink" xmlns:svgjs="http://svgjs.dev/svgjs" width="1440" height="560" preserveAspectRatio="none" viewBox="0 0 1440 560"><g mask="url(&quot;#SvgjsMask1041&quot;)" fill="none"><path d="M773.3222761065864 434.0728968280939L765.2930482663357 548.8962044706177 880.1163559088595 556.9254323108682 888.1455837491102 442.1021246683445z" fill="rgba(73, 96, 125, 0.49)" class="triangle-float1"></path><path d="M1087.7535744683848 353.9885323945054L1166.8368946482403 471.475743430424 1223.0417501748057 361.16750351358786z" fill="rgba(73, 96, 125, 0.49)" class="triangle-float2"></path><path d="M1288.93 167.39 a128.09 128.09 0 1 0 256.18 0 a128.09 128.09 0 1 0 -256.18 0z" fill="rgba(73, 96, 125, 0.49)" class="triangle-float3"></path><path d="M137.74 40.21 a118.1 118.1 0 1 0 236.2 0 a118.1 118.1 0 1 0 -236.2 0z" fill="rgba(73, 96, 125, 0.49)" class="triangle-float2"></path><path d="M89.79 50.89 a152.82 152.82 0 1 0 305.64 0 a152.82 152.82 0 1 0 -305.64 0z" fill="rgba(73, 96, 125, 0.49)" class="triangle-float1"></path><path d="M108.218,567.84C128.091,568.14,146.371,556.507,155.793,539.007C164.767,522.339,162.136,502.259,152.203,486.144C142.781,470.857,126.167,462.36,108.218,461.82C89.164,461.247,69.156,466.977,59.399,483.354C49.456,500.044,53.347,520.786,63.067,537.607C72.78,554.416,88.807,567.547,108.218,567.84" fill="rgba(73, 96, 125, 0.49)" class="triangle-float2"></path><path d="M982.443,136.466C1009.767,137.669,1035.199,121.447,1048.3,97.439C1060.896,74.357,1057.497,46.439,1043.829,23.975C1030.727,2.442,1007.646,-10.394,982.443,-10.801C956.471,-11.22,930.037,-0.827,917.527,21.937C905.377,44.046,913.48,70.102,925.92,92.05C938.584,114.393,956.785,135.336,982.443,136.466" fill="rgba(73, 96, 125, 0.49)" class="triangle-float3"></path><path d="M635.0136138070336 284.15839086964615L476.1929406314648 281.23475754016397 541.3827141523378 403.8388898708033z" fill="rgba(73, 96, 125, 0.49)" class="triangle-float1"></path><path d="M1356.216,541.097C1400.814,541.796,1445.77,527.194,1470.017,489.758C1496.394,449.034,1500.462,396.782,1477.305,354.144C1453.115,309.604,1406.893,279.318,1356.216,280.221C1306.901,281.1,1265.241,314.627,1242.38,358.332C1221.169,398.884,1224.238,447.439,1248.433,486.284C1271.273,522.954,1313.02,540.42,1356.216,541.097" fill="rgba(73, 96, 125, 0.49)" class="triangle-float1"></path><path d="M473.92,588.717C518.179,590.173,556.36,561.291,579.253,523.385C603.055,483.973,615.172,434.157,590.888,395.04C567.512,357.385,518.236,353.056,473.92,353.71C431.129,354.342,384.149,361.325,362.785,398.407C341.444,435.449,358.384,479.914,379.942,516.83C401.259,553.334,431.671,587.327,473.92,588.717" fill="rgba(73, 96, 125, 0.49)" class="triangle-float3"></path></g><defs><mask id="SvgjsMask1041"><rect width="1440" height="560" fill="#ffffff"></rect></mask><style>
                @keyframes float1 {
                    0%{transform: translate(0, 0)}
                    50%{transform: translate(-10px, 0)}
                    100%{transform: translate(0, 0)}
                }

                .triangle-float1 {
                    animation: float1 5s infinite;
                }

                @keyframes float2 {
                    0%{transform: translate(0, 0)}
                    50%{transform: translate(-5px, -5px)}
                    100%{transform: translate(0, 0)}
                }

                .triangle-float2 {
                    animation: float2 4s infinite;
                }

                @keyframes float3 {
                    0%{transform: translate(0, 0)}
                    50%{transform: translate(0, -10px)}
                    100%{transform: translate(0, 0)}
                }

                .triangle-float3 {
                    animation: float3 6s infinite;
                }
            </style></defs></svg>