<svg xmlns="http://www.w3.org/2000/svg" version="1.1" xmlns:xlink="http://www.w3.org/1999/xlink" xmlns:svgjs="http://svgjs.com/svgjs" width="1440" height="560" preserveAspectRatio="none" viewBox="0 0 1440 560"><g mask="url(&quot;#SvgjsMask1061&quot;)" fill="none"><path d="M906.89 411.69 L832.24 306.95L822.1189133702894 406.7660866297107z" stroke="rgba(60, 98, 131, 1)" stroke-width="1" stroke-dasharray="2, 2"></path><rect width="139.8" height="139.8" clip-path="url(&quot;#SvgjsClipPath1062&quot;)" x="481.26" y="9.28" fill="url(#SvgjsPattern1063)" transform="rotate(329.23, 551.16, 79.18)"></rect><rect width="153.60000000000002" height="153.60000000000002" clip-path="url(&quot;#SvgjsClipPath1064&quot;)" x="1271.21" y="84.58" fill="url(#SvgjsPattern1065)" transform="rotate(42.58, 1348.01, 161.38)"></rect><circle r="63.18185240360767" cx="1119.29" cy="224.36" stroke="rgba(44, 63, 80, 1)" stroke-width="1.82" stroke-dasharray="2, 2"></circle><path d="M367.7 329.69a5.6 5.6 0 1 0-2.94 10.8 5.6 5.6 0 1 0 2.94-10.8zM363.49 345.13a5.6 5.6 0 1 0-2.95 10.8 5.6 5.6 0 1 0 2.95-10.8zM359.28 360.56a5.6 5.6 0 1 0-2.95 10.81 5.6 5.6 0 1 0 2.95-10.81zM355.07 376a5.6 5.6 0 1 0-2.95 10.8 5.6 5.6 0 1 0 2.95-10.8zM360.69 294.61a5.6 5.6 0 1 0-2.95 10.8 5.6 5.6 0 1 0 2.95-10.8zM356.48 310.04a5.6 5.6 0 1 0-2.95 10.81 5.6 5.6 0 1 0 2.95-10.81zM352.27 325.48a5.6 5.6 0 1 0-2.95 10.8 5.6 5.6 0 1 0 2.95-10.8zM348.06 340.91a5.6 5.6 0 1 0-2.95 10.81 5.6 5.6 0 1 0 2.95-10.81z" fill="rgba(44, 63, 80, 1)"></path><rect width="93.2" height="93.2" clip-path="url(&quot;#SvgjsClipPath1066&quot;)" x="1351.22" y="344.96" fill="url(#SvgjsPattern1067)" transform="rotate(237.68, 1397.82, 391.56)"></rect><path d="M1287.96 303.72L1294.05 292.45 1306.38 295.93 1312.47 284.67 1324.8 288.14 1330.89 276.88 1343.22 280.35" stroke="rgba(220, 148, 23, 1)" stroke-width="1" stroke-dasharray="3, 3"></path><path d="M1121.44 319.39 L1265.96 217.36L1109.4468351853548 184.1218351853547z" fill="rgba(60, 98, 131, 1)"></path><path d="M770.41 502.49a5.6 5.6 0 1 0 3.15-10.74 5.6 5.6 0 1 0-3.15 10.74zM774.91 487.14a5.6 5.6 0 1 0 3.15-10.75 5.6 5.6 0 1 0-3.15 10.75zM779.41 471.79a5.6 5.6 0 1 0 3.15-10.75 5.6 5.6 0 1 0-3.15 10.75zM783.91 456.43a5.6 5.6 0 1 0 3.15-10.75 5.6 5.6 0 1 0-3.15 10.75z" fill="rgba(44, 63, 80, 1)"></path><circle r="46.666666666666664" cx="312.51" cy="473.28" stroke="rgba(60, 98, 131, 1)" stroke-width="2.05" stroke-dasharray="4, 4"></circle><path d="M810.29 122.21L820.14 130.4 814.31 141.8 824.16 149.99 818.34 161.39 828.19 169.58 822.36 180.98" stroke="rgba(44, 63, 80, 1)" stroke-width="2.62" stroke-dasharray="3, 2"></path><rect width="118.4" height="118.4" clip-path="url(&quot;#SvgjsClipPath1068&quot;)" x="84.27" y="44.88" fill="url(#SvgjsPattern1069)" transform="rotate(194.94, 143.47, 104.08)"></rect></g><defs><mask id="SvgjsMask1061"><rect width="1440" height="560" fill="#ffffff"></rect></mask><pattern x="0" y="0" width="139.8" height="13.98" patternUnits="userSpaceOnUse" id="SvgjsPattern1063"><rect width="139.8" height="6.99" x="0" y="0" fill="rgba(60, 98, 131, 1)"></rect><rect width="139.8" height="6.99" x="0" y="6.99" fill="rgba(0, 0, 0, 0)"></rect></pattern><clipPath id="SvgjsClipPath1062"><circle r="34.95" cx="551.16" cy="79.18"></circle></clipPath><pattern x="0" y="0" width="6.4" height="6.4" patternUnits="userSpaceOnUse" id="SvgjsPattern1065"><path d="M0 6.4L3.2 0L6.4 6.4" stroke="rgba(44, 63, 80, 1)" fill="none"></path></pattern><clipPath id="SvgjsClipPath1064"><circle r="38.400000000000006" cx="1348.01" cy="161.38"></circle></clipPath><pattern x="0" y="0" width="9.32" height="9.32" patternUnits="userSpaceOnUse" id="SvgjsPattern1067"><path d="M0 9.32L4.66 0L9.32 9.32" stroke="rgba(44, 63, 80, 1)" fill="none"></path></pattern><clipPath id="SvgjsClipPath1066"><circle r="23.3" cx="1397.82" cy="391.56"></circle></clipPath><pattern x="0" y="0" width="11.84" height="11.84" patternUnits="userSpaceOnUse" id="SvgjsPattern1069"><path d="M5.92 1L5.92 10.84M1 5.92L10.84 5.92" stroke="rgba(44, 63, 80, 1)" fill="none" stroke-width="3.13"></path></pattern><clipPath id="SvgjsClipPath1068"><circle r="29.6" cx="143.47" cy="104.08"></circle></clipPath></defs></svg>