<svg xmlns="http://www.w3.org/2000/svg" viewBox="0 0 500 400"><g id="freepik--Globe--inject-1"><ellipse cx="249.51" cy="250.01" rx="134.31" ry="20.77" transform="translate(-76.68 114.51) rotate(-22.5)" style="fill:#49607D"></ellipse><ellipse cx="249.51" cy="250.01" rx="134.31" ry="20.77" transform="translate(-76.68 114.51) rotate(-22.5)" style="opacity:0.2"></ellipse><path d="M293.73,154.37c-1.51-.45-3.05-.87-4.57-1.25l.24-1c1.54.38,3.09.81,4.61,1.26Z" style="fill:#49607D"></path><path d="M282.23,151.58A122.88,122.88,0,0,0,259,149.37v-1a124.7,124.7,0,0,1,23.41,2.22Z" style="fill:#49607D"></path><path d="M259.1,394.66v-1a121.39,121.39,0,0,0,46.68-9.33l.38.93A122.37,122.37,0,0,1,259.1,394.66Z" style="fill:#49607D"></path><circle cx="259.05" cy="271.52" r="119.61" transform="translate(-116.12 262.7) rotate(-45)" style="fill:#49607D"></circle><g style="opacity:0.2"><path d="M347.93,213.6l18.83,5.92a119.56,119.56,0,0,0-94.45-66.89l-5.73,15.29-15.9,5.13S232.93,189.43,233,190.49s-.3,17.44-.3,17.44l-12.24,15.89L210,230.69l-.06,15.54,6.25,15.09,9.39-1.72,8.18-9.88-1.33-6.67,19.31-10.89,14.83,7.93,21.07-8.36,13.6,8.44-17.63,16.67L255.92,264l-19.76,8.19L216.81,289l4.71,21,15.41,10.2,30.23,1.55,17.37,18.43,10.94,19.28L302,367.8,312.57,362l10.73-26.82,7.37-34.32-4-19.91-8.33,5.88-6-12.72-11.95-12.31-4.07-8.06,26.16,12.62L350,262.17l9.53-20.55-9.91-16.09-16,4.08-11.52.09-3.8-7.44,14-1.85Z" style="fill:#fff"></path><path d="M202.87,374.7l-6-18.07-28.24-16.79-9.32-2.34a119.71,119.71,0,0,0,95.84,53.58l-.81-2S223,379,222,379.05,202.87,374.7,202.87,374.7Z" style="fill:#fff"></path><path d="M152.23,262.91l1.15-33,20-12.62,13.53-32.67-8.62-1.43a119.63,119.63,0,0,0-32.6,126.48L165,297.29Z" style="fill:#fff"></path></g><path d="M367.26,220.58c-17.8,14.72-58,36.43-106.53,56.52-47.67,19.74-90.78,32.73-114.1,35.24q.88,2.49,1.91,5a119,119,0,0,0,25.05,37.94c24.47-4.29,63.16-16.48,105.43-34,43-17.82,79.52-36.91,99.65-51.27a118.91,118.91,0,0,0-9.12-44.23C368.83,224,368.07,222.27,367.26,220.58Z" style="opacity:0.2"></path><path d="M373.59,198.62l18.28,44.14c4.39,10.6-47.6,42.2-116.13,70.58s-127.64,42.81-132,32.21l-18.29-44.14c4.39,10.6,63.51-3.82,132-32.21S378,209.21,373.59,198.62Z" style="fill:#49607D"></path><path d="M373.59,198.62l18.28,44.14c4.39,10.6-47.6,42.2-116.13,70.58s-127.64,42.81-132,32.21l-18.29-44.14c4.39,10.6,63.51-3.82,132-32.21S378,209.21,373.59,198.62Z" style="fill:#fff;opacity:0.5"></path><path d="M184.09,306.46q4.74-1.5,9.47-3,5.08,6.76,10.15,13.53-.92-8.13-1.79-16.31c3.13-1.05,6.24-2.13,9.36-3.21q5.78,6.48,11.51,13-1.62-8-3.2-15.92,4.64-1.66,9.26-3.39,2.28,14.49,4.67,28.92-4.72,1.71-9.49,3.38-6.47-7.32-13-14.62,1,9.21,2,18.39-4.78,1.59-9.59,3.14Q193.82,318.36,184.09,306.46Z" style="fill:#fff"></path><path d="M238.06,287.58q4.63-1.77,9.24-3.61,4.8,6.76,9.57,13.54-.72-8.38-1.41-16.82c3-1.24,6.09-2.51,9.12-3.78q5.48,6.43,10.9,12.87-1.41-8.14-2.79-16.33,4.53-1.95,9-3.95,1.93,14.89,4,29.72-4.62,2-9.25,4-6.12-7.24-12.32-14.51.76,9.49,1.58,19-4.67,1.89-9.35,3.74Q247.27,299.46,238.06,287.58Z" style="fill:#fff"></path><path d="M290.7,265.45c3-1.37,6-2.77,9-4.17q4.51,6.77,9,13.54-.54-8.64-1-17.32c3-1.44,5.93-2.88,8.89-4.35q5.16,6.39,10.27,12.78-1.2-8.37-2.38-16.73,4.41-2.23,8.8-4.52,1.57,15.29,3.24,30.49-4.49,2.29-9,4.55-5.78-7.2-11.61-14.4.54,9.8,1.15,19.53-4.54,2.19-9.1,4.32Q299.38,277.3,290.7,265.45Z" style="fill:#fff"></path></g></svg>